<svg xmlns="http://www.w3.org/2000/svg" xmlns:xlink="http://www.w3.org/1999/xlink" width="500" zoomAndPan="magnify" viewBox="0 0 375 374.999991" height="500" preserveAspectRatio="xMidYMid meet" version="1.0"><defs><clipPath id="ff245f1916"><path d="M 45.394531 73.554688 L 329.644531 73.554688 L 329.644531 301 L 45.394531 301 Z M 45.394531 73.554688 " clip-rule="nonzero"/></clipPath></defs><rect x="-37.5" width="450" fill="#ffffff" y="-37.499999" height="449.999989" fill-opacity="1"/><rect x="-37.5" width="450" fill="#ffffff" y="-37.499999" height="449.999989" fill-opacity="1"/><g clip-path="url(#ff245f1916)"><path fill="#48b6d9" d="M 312.855469 73.960938 L 62.179688 73.960938 C 61.628906 73.960938 61.078125 73.988281 60.527344 74.042969 C 59.980469 74.097656 59.433594 74.179688 58.890625 74.289062 C 58.351562 74.394531 57.816406 74.53125 57.285156 74.691406 C 56.757812 74.851562 56.238281 75.039062 55.730469 75.25 C 55.21875 75.464844 54.722656 75.699219 54.234375 75.960938 C 53.746094 76.222656 53.277344 76.507812 52.816406 76.816406 C 52.359375 77.125 51.917969 77.453125 51.492188 77.804688 C 51.066406 78.15625 50.65625 78.527344 50.269531 78.921875 C 49.878906 79.3125 49.511719 79.722656 49.160156 80.152344 C 48.8125 80.578125 48.484375 81.023438 48.179688 81.484375 C 47.875 81.945312 47.59375 82.417969 47.335938 82.910156 C 47.078125 83.398438 46.84375 83.898438 46.636719 84.40625 C 46.429688 84.917969 46.246094 85.441406 46.085938 85.96875 C 45.929688 86.5 45.800781 87.035156 45.695312 87.578125 C 45.589844 88.121094 45.511719 88.664062 45.460938 89.214844 C 45.414062 89.765625 45.390625 90.316406 45.394531 90.871094 L 45.394531 284.195312 C 45.394531 284.746094 45.417969 285.296875 45.472656 285.84375 C 45.527344 286.390625 45.609375 286.933594 45.714844 287.472656 C 45.824219 288.011719 45.957031 288.542969 46.117188 289.070312 C 46.277344 289.597656 46.460938 290.113281 46.671875 290.621094 C 46.882812 291.128906 47.117188 291.625 47.375 292.109375 C 47.632812 292.597656 47.917969 293.066406 48.222656 293.523438 C 48.527344 293.980469 48.855469 294.421875 49.203125 294.847656 C 49.550781 295.273438 49.921875 295.679688 50.308594 296.070312 C 50.699219 296.457031 51.105469 296.828125 51.53125 297.175781 C 51.957031 297.523438 52.398438 297.851562 52.855469 298.15625 C 53.3125 298.460938 53.78125 298.746094 54.265625 299.003906 C 54.753906 299.261719 55.25 299.496094 55.757812 299.707031 C 56.265625 299.917969 56.78125 300.101562 57.308594 300.261719 C 57.835938 300.421875 58.367188 300.554688 58.90625 300.664062 C 59.445312 300.769531 59.988281 300.851562 60.535156 300.90625 C 61.082031 300.960938 61.632812 300.984375 62.179688 300.984375 L 312.855469 300.984375 C 313.402344 300.984375 313.953125 300.960938 314.5 300.90625 C 315.046875 300.851562 315.589844 300.769531 316.128906 300.664062 C 316.667969 300.554688 317.203125 300.421875 317.726562 300.261719 C 318.253906 300.101562 318.769531 299.917969 319.277344 299.707031 C 319.785156 299.496094 320.285156 299.261719 320.769531 299.003906 C 321.253906 298.746094 321.722656 298.460938 322.179688 298.15625 C 322.640625 297.851562 323.078125 297.523438 323.503906 297.175781 C 323.929688 296.828125 324.335938 296.457031 324.726562 296.070312 C 325.113281 295.679688 325.484375 295.273438 325.832031 294.847656 C 326.179688 294.421875 326.507812 293.980469 326.8125 293.523438 C 327.117188 293.066406 327.402344 292.597656 327.660156 292.109375 C 327.917969 291.625 328.15625 291.128906 328.363281 290.621094 C 328.574219 290.113281 328.761719 289.597656 328.921875 289.070312 C 329.078125 288.542969 329.214844 288.011719 329.320312 287.472656 C 329.425781 286.933594 329.507812 286.390625 329.5625 285.84375 C 329.617188 285.296875 329.644531 284.746094 329.644531 284.195312 L 329.644531 90.871094 C 329.648438 90.316406 329.625 89.765625 329.574219 89.214844 C 329.523438 88.664062 329.445312 88.121094 329.339844 87.578125 C 329.234375 87.035156 329.105469 86.5 328.949219 85.96875 C 328.789062 85.441406 328.609375 84.917969 328.398438 84.40625 C 328.191406 83.898438 327.957031 83.398438 327.699219 82.910156 C 327.441406 82.417969 327.160156 81.945312 326.855469 81.484375 C 326.550781 81.023438 326.222656 80.578125 325.875 80.152344 C 325.527344 79.722656 325.15625 79.3125 324.769531 78.921875 C 324.378906 78.527344 323.972656 78.15625 323.546875 77.804688 C 323.121094 77.453125 322.675781 77.125 322.21875 76.816406 C 321.761719 76.507812 321.289062 76.222656 320.800781 75.960938 C 320.316406 75.699219 319.816406 75.464844 319.304688 75.25 C 318.796875 75.039062 318.277344 74.851562 317.75 74.691406 C 317.222656 74.53125 316.6875 74.394531 316.144531 74.285156 C 315.601562 74.179688 315.058594 74.097656 314.507812 74.042969 C 313.957031 73.988281 313.40625 73.960938 312.855469 73.960938 Z M 51.316406 90.871094 C 51.308594 90.152344 51.371094 89.4375 51.503906 88.734375 C 51.636719 88.027344 51.839844 87.339844 52.109375 86.675781 C 52.378906 86.007812 52.710938 85.375 53.105469 84.773438 C 53.5 84.175781 53.949219 83.621094 54.457031 83.109375 C 54.960938 82.597656 55.511719 82.140625 56.105469 81.738281 C 56.703125 81.339844 57.332031 81 57.996094 80.722656 C 58.660156 80.445312 59.34375 80.238281 60.046875 80.09375 C 60.75 79.953125 61.460938 79.882812 62.179688 79.882812 L 312.855469 79.882812 C 313.574219 79.882812 314.285156 79.953125 314.988281 80.09375 C 315.695312 80.238281 316.378906 80.445312 317.039062 80.722656 C 317.703125 81 318.332031 81.339844 318.929688 81.738281 C 319.523438 82.140625 320.074219 82.597656 320.582031 83.109375 C 321.085938 83.621094 321.535156 84.175781 321.929688 84.773438 C 322.328125 85.375 322.660156 86.007812 322.929688 86.675781 C 323.199219 87.339844 323.398438 88.027344 323.53125 88.734375 C 323.667969 89.4375 323.730469 90.152344 323.722656 90.871094 L 323.722656 109.109375 L 51.316406 109.109375 Z M 323.722656 284.195312 C 323.722656 284.910156 323.652344 285.617188 323.511719 286.316406 C 323.371094 287.015625 323.167969 287.695312 322.894531 288.355469 C 322.621094 289.015625 322.285156 289.640625 321.890625 290.234375 C 321.492188 290.828125 321.042969 291.375 320.539062 291.882812 C 320.035156 292.386719 319.484375 292.835938 318.890625 293.230469 C 318.296875 293.628906 317.671875 293.964844 317.011719 294.238281 C 316.355469 294.507812 315.675781 294.714844 314.972656 294.855469 C 314.273438 294.996094 313.566406 295.0625 312.855469 295.0625 L 62.179688 295.0625 C 61.46875 295.0625 60.761719 294.996094 60.0625 294.855469 C 59.363281 294.714844 58.683594 294.507812 58.023438 294.238281 C 57.363281 293.964844 56.738281 293.628906 56.144531 293.230469 C 55.550781 292.835938 55.003906 292.386719 54.496094 291.882812 C 53.992188 291.375 53.542969 290.828125 53.144531 290.234375 C 52.75 289.640625 52.414062 289.015625 52.140625 288.355469 C 51.867188 287.695312 51.664062 287.015625 51.523438 286.316406 C 51.382812 285.617188 51.316406 284.910156 51.316406 284.195312 L 51.316406 115.03125 L 323.722656 115.03125 Z M 323.722656 284.195312 " fill-opacity="1" fill-rule="nonzero"/></g><path fill="#48b6d9" d="M 283.511719 91.726562 L 282.269531 91.726562 C 281.875 91.726562 281.496094 91.804688 281.132812 91.953125 C 280.773438 92.105469 280.453125 92.316406 280.175781 92.59375 C 279.898438 92.871094 279.683594 93.191406 279.53125 93.554688 C 279.382812 93.917969 279.308594 94.296875 279.308594 94.6875 C 279.308594 95.082031 279.382812 95.460938 279.53125 95.820312 C 279.683594 96.183594 279.898438 96.503906 280.175781 96.78125 C 280.453125 97.058594 280.773438 97.273438 281.132812 97.425781 C 281.496094 97.574219 281.875 97.648438 282.269531 97.648438 L 283.453125 97.648438 C 283.84375 97.648438 284.222656 97.574219 284.585938 97.425781 C 284.949219 97.273438 285.269531 97.058594 285.546875 96.78125 C 285.824219 96.503906 286.039062 96.183594 286.1875 95.820312 C 286.339844 95.460938 286.414062 95.082031 286.414062 94.6875 C 286.414062 94.296875 286.339844 93.917969 286.1875 93.554688 C 286.039062 93.191406 285.824219 92.871094 285.546875 92.59375 C 285.269531 92.316406 284.949219 92.105469 284.585938 91.953125 C 284.222656 91.804688 283.84375 91.726562 283.453125 91.726562 Z M 283.511719 91.726562 " fill-opacity="1" fill-rule="nonzero"/><path fill="#48b6d9" d="M 296.421875 91.726562 L 295.238281 91.726562 C 294.84375 91.726562 294.464844 91.804688 294.105469 91.953125 C 293.742188 92.105469 293.421875 92.316406 293.144531 92.59375 C 292.867188 92.871094 292.652344 93.191406 292.5 93.554688 C 292.351562 93.917969 292.277344 94.296875 292.277344 94.6875 C 292.277344 95.082031 292.351562 95.460938 292.5 95.820312 C 292.652344 96.183594 292.867188 96.503906 293.144531 96.78125 C 293.421875 97.058594 293.742188 97.273438 294.105469 97.425781 C 294.464844 97.574219 294.84375 97.648438 295.238281 97.648438 L 296.421875 97.648438 C 296.8125 97.648438 297.191406 97.574219 297.554688 97.425781 C 297.917969 97.273438 298.238281 97.058594 298.515625 96.78125 C 298.792969 96.503906 299.007812 96.183594 299.15625 95.820312 C 299.308594 95.460938 299.382812 95.082031 299.382812 94.6875 C 299.382812 94.296875 299.308594 93.917969 299.15625 93.554688 C 299.007812 93.191406 298.792969 92.871094 298.515625 92.59375 C 298.238281 92.316406 297.917969 92.105469 297.554688 91.953125 C 297.191406 91.804688 296.8125 91.726562 296.421875 91.726562 Z M 296.421875 91.726562 " fill-opacity="1" fill-rule="nonzero"/><path fill="#48b6d9" d="M 309.332031 91.726562 L 308.117188 91.726562 C 307.722656 91.726562 307.347656 91.804688 306.984375 91.953125 C 306.621094 92.105469 306.300781 92.316406 306.023438 92.59375 C 305.746094 92.871094 305.53125 93.191406 305.382812 93.554688 C 305.230469 93.917969 305.15625 94.296875 305.15625 94.6875 C 305.15625 95.082031 305.230469 95.460938 305.382812 95.820312 C 305.53125 96.183594 305.746094 96.503906 306.023438 96.78125 C 306.300781 97.058594 306.621094 97.273438 306.984375 97.425781 C 307.347656 97.574219 307.722656 97.648438 308.117188 97.648438 L 309.332031 97.648438 C 309.722656 97.648438 310.101562 97.574219 310.464844 97.425781 C 310.828125 97.273438 311.148438 97.058594 311.425781 96.78125 C 311.703125 96.503906 311.917969 96.183594 312.066406 95.820312 C 312.214844 95.460938 312.292969 95.082031 312.292969 94.6875 C 312.292969 94.296875 312.214844 93.917969 312.066406 93.554688 C 311.917969 93.191406 311.703125 92.871094 311.425781 92.59375 C 311.148438 92.316406 310.828125 92.105469 310.464844 91.953125 C 310.101562 91.804688 309.722656 91.726562 309.332031 91.726562 Z M 309.332031 91.726562 " fill-opacity="1" fill-rule="nonzero"/><path fill="#48b6d9" d="M 140.5 91.726562 L 66.476562 91.726562 C 66.082031 91.726562 65.703125 91.804688 65.339844 91.953125 C 64.980469 92.105469 64.660156 92.316406 64.382812 92.59375 C 64.101562 92.871094 63.890625 93.191406 63.738281 93.554688 C 63.589844 93.917969 63.515625 94.296875 63.515625 94.6875 C 63.515625 95.082031 63.589844 95.460938 63.738281 95.820312 C 63.890625 96.183594 64.101562 96.503906 64.382812 96.78125 C 64.660156 97.058594 64.980469 97.273438 65.339844 97.425781 C 65.703125 97.574219 66.082031 97.648438 66.476562 97.648438 L 140.5 97.648438 C 140.890625 97.648438 141.269531 97.574219 141.632812 97.425781 C 141.992188 97.273438 142.3125 97.058594 142.59375 96.78125 C 142.871094 96.503906 143.082031 96.183594 143.234375 95.820312 C 143.382812 95.460938 143.460938 95.082031 143.460938 94.6875 C 143.460938 94.296875 143.382812 93.917969 143.234375 93.554688 C 143.082031 93.191406 142.871094 92.871094 142.59375 92.59375 C 142.3125 92.316406 141.992188 92.105469 141.632812 91.953125 C 141.269531 91.804688 140.890625 91.726562 140.5 91.726562 Z M 140.5 91.726562 " fill-opacity="1" fill-rule="nonzero"/><path fill="#48b6d9" d="M 162.289062 230.394531 L 252.214844 230.394531 C 252.824219 230.394531 253.429688 230.335938 254.03125 230.214844 C 254.628906 230.097656 255.210938 229.921875 255.777344 229.6875 C 256.339844 229.453125 256.878906 229.167969 257.386719 228.828125 C 257.894531 228.488281 258.367188 228.105469 258.800781 227.671875 C 259.230469 227.242188 259.617188 226.773438 259.960938 226.265625 C 260.300781 225.757812 260.585938 225.222656 260.824219 224.65625 C 261.058594 224.09375 261.234375 223.511719 261.355469 222.914062 C 261.476562 222.3125 261.539062 221.707031 261.542969 221.097656 L 261.542969 211.472656 C 261.542969 210.859375 261.480469 210.253906 261.363281 209.652344 C 261.242188 209.054688 261.066406 208.46875 260.832031 207.902344 C 260.597656 207.339844 260.308594 206.800781 259.96875 206.292969 C 259.628906 205.78125 259.242188 205.3125 258.808594 204.878906 C 258.375 204.445312 257.90625 204.058594 257.394531 203.71875 C 256.886719 203.378906 256.347656 203.089844 255.785156 202.855469 C 255.21875 202.621094 254.632812 202.445312 254.035156 202.324219 C 253.433594 202.207031 252.828125 202.144531 252.214844 202.144531 L 162.289062 202.144531 C 161.679688 202.144531 161.070312 202.207031 160.472656 202.324219 C 159.871094 202.445312 159.289062 202.621094 158.722656 202.855469 C 158.15625 203.089844 157.617188 203.378906 157.109375 203.71875 C 156.601562 204.058594 156.128906 204.445312 155.695312 204.878906 C 155.261719 205.3125 154.875 205.78125 154.535156 206.292969 C 154.195312 206.800781 153.90625 207.339844 153.671875 207.902344 C 153.4375 208.46875 153.261719 209.054688 153.144531 209.652344 C 153.023438 210.253906 152.964844 210.859375 152.964844 211.472656 L 152.964844 221.097656 C 152.964844 221.707031 153.027344 222.3125 153.148438 222.910156 C 153.269531 223.511719 153.445312 224.09375 153.683594 224.65625 C 153.917969 225.222656 154.207031 225.757812 154.546875 226.265625 C 154.886719 226.773438 155.273438 227.242188 155.707031 227.671875 C 156.140625 228.105469 156.609375 228.488281 157.117188 228.828125 C 157.625 229.167969 158.164062 229.453125 158.726562 229.6875 C 159.292969 229.921875 159.875 230.097656 160.476562 230.214844 C 161.074219 230.335938 161.679688 230.394531 162.289062 230.394531 Z M 158.886719 211.472656 C 158.890625 211.023438 158.976562 210.589844 159.152344 210.175781 C 159.328125 209.757812 159.574219 209.390625 159.890625 209.074219 C 160.210938 208.753906 160.578125 208.507812 160.992188 208.335938 C 161.40625 208.160156 161.839844 208.070312 162.289062 208.066406 L 252.214844 208.066406 C 252.664062 208.066406 253.101562 208.15625 253.515625 208.328125 C 253.933594 208.5 254.304688 208.746094 254.621094 209.066406 C 254.941406 209.382812 255.1875 209.753906 255.359375 210.171875 C 255.53125 210.585938 255.621094 211.023438 255.621094 211.472656 L 255.621094 221.097656 C 255.621094 221.546875 255.53125 221.980469 255.359375 222.394531 C 255.1875 222.8125 254.941406 223.175781 254.621094 223.492188 C 254.300781 223.8125 253.933594 224.054688 253.515625 224.222656 C 253.097656 224.394531 252.664062 224.476562 252.214844 224.472656 L 162.289062 224.472656 C 161.839844 224.472656 161.410156 224.386719 160.996094 224.214844 C 160.578125 224.046875 160.210938 223.800781 159.894531 223.484375 C 159.574219 223.167969 159.328125 222.804688 159.152344 222.390625 C 158.980469 221.976562 158.890625 221.546875 158.886719 221.097656 Z M 158.886719 211.472656 " fill-opacity="1" fill-rule="nonzero"/><path fill="#48b6d9" d="M 162.289062 275.996094 L 252.214844 275.996094 C 252.828125 275.996094 253.433594 275.933594 254.035156 275.816406 C 254.632812 275.695312 255.21875 275.519531 255.785156 275.285156 C 256.347656 275.050781 256.886719 274.761719 257.394531 274.421875 C 257.90625 274.082031 258.375 273.695312 258.808594 273.261719 C 259.242188 272.828125 259.628906 272.359375 259.96875 271.847656 C 260.308594 271.339844 260.597656 270.800781 260.832031 270.238281 C 261.066406 269.671875 261.242188 269.085938 261.363281 268.488281 C 261.480469 267.886719 261.542969 267.28125 261.542969 266.667969 L 261.542969 257.042969 C 261.539062 256.433594 261.476562 255.828125 261.355469 255.226562 C 261.234375 254.628906 261.058594 254.046875 260.824219 253.484375 C 260.585938 252.917969 260.300781 252.382812 259.960938 251.875 C 259.617188 251.367188 259.230469 250.898438 258.800781 250.46875 C 258.367188 250.035156 257.894531 249.652344 257.386719 249.3125 C 256.878906 248.972656 256.339844 248.6875 255.777344 248.453125 C 255.210938 248.21875 254.628906 248.042969 254.03125 247.925781 C 253.429688 247.804688 252.824219 247.746094 252.214844 247.746094 L 162.289062 247.746094 C 161.679688 247.746094 161.074219 247.804688 160.476562 247.925781 C 159.875 248.042969 159.292969 248.21875 158.726562 248.453125 C 158.164062 248.6875 157.625 248.972656 157.117188 249.3125 C 156.609375 249.652344 156.140625 250.035156 155.707031 250.46875 C 155.273438 250.898438 154.886719 251.367188 154.546875 251.875 C 154.207031 252.382812 153.917969 252.917969 153.683594 253.484375 C 153.445312 254.046875 153.269531 254.628906 153.148438 255.226562 C 153.027344 255.828125 152.964844 256.433594 152.964844 257.042969 L 152.964844 266.667969 C 152.964844 267.28125 153.023438 267.886719 153.144531 268.488281 C 153.261719 269.085938 153.4375 269.671875 153.671875 270.238281 C 153.90625 270.800781 154.195312 271.339844 154.535156 271.847656 C 154.875 272.359375 155.261719 272.828125 155.695312 273.261719 C 156.128906 273.695312 156.601562 274.082031 157.109375 274.421875 C 157.617188 274.761719 158.15625 275.050781 158.722656 275.285156 C 159.289062 275.519531 159.871094 275.695312 160.472656 275.816406 C 161.070312 275.933594 161.679688 275.996094 162.289062 275.996094 Z M 158.886719 257.042969 C 158.890625 256.59375 158.980469 256.164062 159.152344 255.75 C 159.328125 255.335938 159.574219 254.972656 159.894531 254.65625 C 160.210938 254.339844 160.578125 254.09375 160.996094 253.925781 C 161.410156 253.753906 161.839844 253.667969 162.289062 253.667969 L 252.214844 253.667969 C 252.664062 253.664062 253.097656 253.746094 253.515625 253.917969 C 253.933594 254.085938 254.300781 254.328125 254.621094 254.644531 C 254.941406 254.964844 255.1875 255.328125 255.359375 255.746094 C 255.53125 256.160156 255.621094 256.59375 255.621094 257.042969 L 255.621094 266.667969 C 255.621094 267.117188 255.53125 267.554688 255.359375 267.96875 C 255.1875 268.386719 254.941406 268.757812 254.621094 269.074219 C 254.304688 269.394531 253.933594 269.640625 253.515625 269.8125 C 253.101562 269.984375 252.664062 270.074219 252.214844 270.074219 L 162.289062 270.074219 C 161.839844 270.070312 161.40625 269.980469 160.992188 269.804688 C 160.578125 269.632812 160.210938 269.386719 159.890625 269.066406 C 159.574219 268.75 159.328125 268.382812 159.152344 267.964844 C 158.976562 267.550781 158.890625 267.117188 158.886719 266.667969 Z M 158.886719 257.042969 " fill-opacity="1" fill-rule="nonzero"/><path fill="#48b6d9" d="M 116.457031 208.066406 L 137.832031 208.066406 C 138.226562 208.066406 138.605469 207.992188 138.964844 207.84375 C 139.328125 207.691406 139.648438 207.476562 139.925781 207.199219 C 140.203125 206.921875 140.417969 206.601562 140.570312 206.238281 C 140.71875 205.878906 140.792969 205.5 140.792969 205.105469 C 140.792969 204.714844 140.71875 204.335938 140.570312 203.972656 C 140.417969 203.609375 140.203125 203.289062 139.925781 203.011719 C 139.648438 202.734375 139.328125 202.523438 138.964844 202.371094 C 138.605469 202.222656 138.226562 202.144531 137.832031 202.144531 L 116.457031 202.144531 C 116.0625 202.144531 115.683594 202.222656 115.324219 202.371094 C 114.960938 202.523438 114.640625 202.734375 114.363281 203.011719 C 114.085938 203.289062 113.871094 203.609375 113.71875 203.972656 C 113.570312 204.335938 113.496094 204.714844 113.496094 205.105469 C 113.496094 205.5 113.570312 205.878906 113.71875 206.238281 C 113.871094 206.601562 114.085938 206.921875 114.363281 207.199219 C 114.640625 207.476562 114.960938 207.691406 115.324219 207.84375 C 115.683594 207.992188 116.0625 208.066406 116.457031 208.066406 Z M 116.457031 208.066406 " fill-opacity="1" fill-rule="nonzero"/><path fill="#48b6d9" d="M 116.457031 219.230469 L 137.832031 219.230469 C 138.226562 219.230469 138.605469 219.15625 138.964844 219.003906 C 139.328125 218.855469 139.648438 218.640625 139.925781 218.363281 C 140.203125 218.085938 140.417969 217.765625 140.570312 217.402344 C 140.71875 217.039062 140.792969 216.664062 140.792969 216.269531 C 140.792969 215.878906 140.71875 215.5 140.570312 215.136719 C 140.417969 214.773438 140.203125 214.453125 139.925781 214.175781 C 139.648438 213.898438 139.328125 213.683594 138.964844 213.535156 C 138.605469 213.382812 138.226562 213.308594 137.832031 213.308594 L 116.457031 213.308594 C 116.0625 213.308594 115.683594 213.382812 115.324219 213.535156 C 114.960938 213.683594 114.640625 213.898438 114.363281 214.175781 C 114.085938 214.453125 113.871094 214.773438 113.71875 215.136719 C 113.570312 215.5 113.496094 215.878906 113.496094 216.269531 C 113.496094 216.664062 113.570312 217.039062 113.71875 217.402344 C 113.871094 217.765625 114.085938 218.085938 114.363281 218.363281 C 114.640625 218.640625 114.960938 218.855469 115.324219 219.003906 C 115.683594 219.15625 116.0625 219.230469 116.457031 219.230469 Z M 116.457031 219.230469 " fill-opacity="1" fill-rule="nonzero"/><path fill="#48b6d9" d="M 116.457031 230.394531 L 137.832031 230.394531 C 138.226562 230.394531 138.605469 230.320312 138.964844 230.167969 C 139.328125 230.019531 139.648438 229.804688 139.925781 229.527344 C 140.203125 229.25 140.417969 228.929688 140.570312 228.566406 C 140.71875 228.203125 140.792969 227.824219 140.792969 227.433594 C 140.792969 227.039062 140.71875 226.664062 140.570312 226.300781 C 140.417969 225.9375 140.203125 225.617188 139.925781 225.339844 C 139.648438 225.0625 139.328125 224.847656 138.964844 224.699219 C 138.605469 224.546875 138.226562 224.472656 137.832031 224.472656 L 116.457031 224.472656 C 116.0625 224.472656 115.683594 224.546875 115.324219 224.699219 C 114.960938 224.847656 114.640625 225.0625 114.363281 225.339844 C 114.085938 225.617188 113.871094 225.9375 113.71875 226.300781 C 113.570312 226.664062 113.496094 227.039062 113.496094 227.433594 C 113.496094 227.824219 113.570312 228.203125 113.71875 228.566406 C 113.871094 228.929688 114.085938 229.25 114.363281 229.527344 C 114.640625 229.804688 114.960938 230.019531 115.324219 230.167969 C 115.683594 230.320312 116.0625 230.394531 116.457031 230.394531 Z M 116.457031 230.394531 " fill-opacity="1" fill-rule="nonzero"/><path fill="#48b6d9" d="M 116.457031 253.667969 L 137.832031 253.667969 C 138.226562 253.667969 138.605469 253.59375 138.964844 253.441406 C 139.328125 253.292969 139.648438 253.078125 139.925781 252.800781 C 140.203125 252.523438 140.417969 252.203125 140.570312 251.839844 C 140.71875 251.476562 140.792969 251.101562 140.792969 250.707031 C 140.792969 250.316406 140.71875 249.9375 140.570312 249.574219 C 140.417969 249.210938 140.203125 248.890625 139.925781 248.613281 C 139.648438 248.335938 139.328125 248.121094 138.964844 247.972656 C 138.605469 247.820312 138.226562 247.746094 137.832031 247.746094 L 116.457031 247.746094 C 116.0625 247.746094 115.683594 247.820312 115.324219 247.972656 C 114.960938 248.121094 114.640625 248.335938 114.363281 248.613281 C 114.085938 248.890625 113.871094 249.210938 113.71875 249.574219 C 113.570312 249.9375 113.496094 250.316406 113.496094 250.707031 C 113.496094 251.101562 113.570312 251.476562 113.71875 251.839844 C 113.871094 252.203125 114.085938 252.523438 114.363281 252.800781 C 114.640625 253.078125 114.960938 253.292969 115.324219 253.441406 C 115.683594 253.59375 116.0625 253.667969 116.457031 253.667969 Z M 116.457031 253.667969 " fill-opacity="1" fill-rule="nonzero"/><path fill="#48b6d9" d="M 116.457031 264.832031 L 137.832031 264.832031 C 138.226562 264.832031 138.605469 264.757812 138.964844 264.605469 C 139.328125 264.457031 139.648438 264.242188 139.925781 263.964844 C 140.203125 263.6875 140.417969 263.367188 140.570312 263.003906 C 140.71875 262.640625 140.792969 262.261719 140.792969 261.871094 C 140.792969 261.476562 140.71875 261.101562 140.570312 260.738281 C 140.417969 260.375 140.203125 260.054688 139.925781 259.777344 C 139.648438 259.5 139.328125 259.285156 138.964844 259.132812 C 138.605469 258.984375 138.226562 258.910156 137.832031 258.910156 L 116.457031 258.910156 C 116.0625 258.910156 115.683594 258.984375 115.324219 259.132812 C 114.960938 259.285156 114.640625 259.5 114.363281 259.777344 C 114.085938 260.054688 113.871094 260.375 113.71875 260.738281 C 113.570312 261.101562 113.496094 261.476562 113.496094 261.871094 C 113.496094 262.261719 113.570312 262.640625 113.71875 263.003906 C 113.871094 263.367188 114.085938 263.6875 114.363281 263.964844 C 114.640625 264.242188 114.960938 264.457031 115.324219 264.605469 C 115.683594 264.757812 116.0625 264.832031 116.457031 264.832031 Z M 116.457031 264.832031 " fill-opacity="1" fill-rule="nonzero"/><path fill="#48b6d9" d="M 116.457031 275.996094 L 137.832031 275.996094 C 138.226562 275.996094 138.605469 275.917969 138.964844 275.769531 C 139.328125 275.617188 139.648438 275.40625 139.925781 275.128906 C 140.203125 274.851562 140.417969 274.53125 140.570312 274.167969 C 140.71875 273.804688 140.792969 273.425781 140.792969 273.035156 C 140.792969 272.640625 140.71875 272.261719 140.570312 271.902344 C 140.417969 271.539062 140.203125 271.21875 139.925781 270.941406 C 139.648438 270.664062 139.328125 270.449219 138.964844 270.296875 C 138.605469 270.148438 138.226562 270.074219 137.832031 270.074219 L 116.457031 270.074219 C 116.0625 270.074219 115.683594 270.148438 115.324219 270.296875 C 114.960938 270.449219 114.640625 270.664062 114.363281 270.941406 C 114.085938 271.21875 113.871094 271.539062 113.71875 271.902344 C 113.570312 272.261719 113.496094 272.640625 113.496094 273.035156 C 113.496094 273.425781 113.570312 273.804688 113.71875 274.167969 C 113.871094 274.53125 114.085938 274.851562 114.363281 275.128906 C 114.640625 275.40625 114.960938 275.617188 115.324219 275.769531 C 115.683594 275.917969 116.0625 275.996094 116.457031 275.996094 Z M 116.457031 275.996094 " fill-opacity="1" fill-rule="nonzero"/><path fill="#48b6d9" d="M 187.519531 190.566406 C 188.589844 190.570312 189.664062 190.515625 190.730469 190.414062 C 191.800781 190.308594 192.859375 190.152344 193.914062 189.945312 C 194.96875 189.734375 196.007812 189.476562 197.035156 189.164062 C 198.0625 188.855469 199.074219 188.492188 200.066406 188.082031 C 201.058594 187.671875 202.027344 187.214844 202.976562 186.710938 C 203.921875 186.203125 204.84375 185.652344 205.734375 185.058594 C 206.628906 184.460938 207.492188 183.824219 208.320312 183.144531 C 209.152344 182.464844 209.949219 181.742188 210.707031 180.984375 C 211.46875 180.226562 212.1875 179.433594 212.871094 178.601562 C 213.550781 177.773438 214.191406 176.910156 214.789062 176.019531 C 215.386719 175.128906 215.9375 174.207031 216.445312 173.261719 C 216.949219 172.316406 217.410156 171.34375 217.820312 170.355469 C 218.234375 169.363281 218.59375 168.351562 218.90625 167.324219 C 219.21875 166.296875 219.480469 165.257812 219.691406 164.203125 C 219.902344 163.152344 220.058594 162.089844 220.164062 161.023438 C 220.269531 159.953125 220.324219 158.882812 220.324219 157.808594 C 220.324219 156.734375 220.273438 155.664062 220.167969 154.59375 C 220.066406 153.527344 219.90625 152.464844 219.699219 151.414062 C 219.488281 150.359375 219.230469 149.320312 218.917969 148.292969 C 218.609375 147.261719 218.246094 146.253906 217.835938 145.261719 C 217.425781 144.269531 216.96875 143.300781 216.460938 142.351562 C 215.957031 141.40625 215.40625 140.484375 214.808594 139.589844 C 214.214844 138.699219 213.574219 137.835938 212.894531 137.007812 C 212.214844 136.175781 211.492188 135.382812 210.734375 134.621094 C 209.976562 133.863281 209.183594 133.140625 208.351562 132.460938 C 207.523438 131.777344 206.660156 131.140625 205.769531 130.542969 C 204.875 129.945312 203.957031 129.394531 203.011719 128.886719 C 202.0625 128.378906 201.09375 127.921875 200.101562 127.511719 C 199.109375 127.097656 198.101562 126.738281 197.074219 126.425781 C 196.046875 126.113281 195.007812 125.851562 193.953125 125.640625 C 192.898438 125.433594 191.839844 125.273438 190.769531 125.167969 C 189.703125 125.0625 188.632812 125.011719 187.558594 125.011719 C 186.484375 125.011719 185.414062 125.0625 184.34375 125.167969 C 183.273438 125.273438 182.214844 125.429688 181.160156 125.636719 C 180.109375 125.847656 179.066406 126.109375 178.039062 126.417969 C 177.011719 126.730469 176.003906 127.09375 175.011719 127.503906 C 174.019531 127.914062 173.050781 128.371094 172.101562 128.878906 C 171.15625 129.382812 170.234375 129.933594 169.34375 130.53125 C 168.449219 131.128906 167.589844 131.765625 166.757812 132.449219 C 165.929688 133.128906 165.132812 133.847656 164.375 134.609375 C 163.613281 135.367188 162.894531 136.160156 162.210938 136.992188 C 161.53125 137.820312 160.894531 138.683594 160.296875 139.574219 C 159.699219 140.46875 159.148438 141.386719 158.640625 142.335938 C 158.136719 143.28125 157.675781 144.25 157.265625 145.242188 C 156.855469 146.234375 156.492188 147.246094 156.183594 148.273438 C 155.871094 149.300781 155.609375 150.339844 155.398438 151.394531 C 155.191406 152.445312 155.03125 153.507812 154.929688 154.574219 C 154.824219 155.644531 154.769531 156.714844 154.769531 157.789062 C 154.761719 158.863281 154.808594 159.9375 154.910156 161.007812 C 155.007812 162.078125 155.160156 163.140625 155.363281 164.195312 C 155.570312 165.25 155.824219 166.292969 156.132812 167.324219 C 156.441406 168.351562 156.796875 169.363281 157.207031 170.359375 C 157.613281 171.351562 158.070312 172.324219 158.574219 173.273438 C 159.078125 174.222656 159.628906 175.144531 160.222656 176.039062 C 160.820312 176.933594 161.457031 177.796875 162.136719 178.628906 C 162.820312 179.460938 163.539062 180.257812 164.296875 181.019531 C 165.058594 181.777344 165.851562 182.5 166.683594 183.179688 C 167.515625 183.863281 168.378906 184.5 169.273438 185.097656 C 170.167969 185.695312 171.089844 186.246094 172.035156 186.75 C 172.984375 187.253906 173.957031 187.710938 174.949219 188.121094 C 175.945312 188.53125 176.957031 188.886719 177.984375 189.195312 C 179.015625 189.503906 180.058594 189.761719 181.113281 189.96875 C 182.167969 190.171875 183.230469 190.328125 184.300781 190.425781 C 185.371094 190.527344 186.441406 190.574219 187.519531 190.566406 Z M 165.667969 173.277344 C 165.972656 172.835938 166.289062 172.410156 166.621094 171.992188 C 166.953125 171.570312 167.296875 171.164062 167.652344 170.765625 C 168.007812 170.367188 168.375 169.980469 168.753906 169.605469 C 169.132812 169.230469 169.523438 168.863281 169.925781 168.511719 C 170.324219 168.160156 170.738281 167.820312 171.160156 167.492188 C 171.582031 167.164062 172.011719 166.847656 172.453125 166.546875 C 172.890625 166.246094 173.339844 165.957031 173.800781 165.683594 C 174.257812 165.40625 174.722656 165.144531 175.195312 164.898438 C 175.667969 164.652344 176.148438 164.421875 176.636719 164.203125 C 177.125 163.984375 177.617188 163.78125 178.117188 163.59375 C 178.617188 163.402344 179.121094 163.230469 179.632812 163.074219 C 180.140625 162.914062 180.65625 162.773438 181.175781 162.644531 C 181.691406 162.519531 182.214844 162.40625 182.738281 162.3125 C 183.265625 162.214844 183.792969 162.136719 184.324219 162.070312 C 184.851562 162.007812 185.382812 161.960938 185.917969 161.925781 C 186.449219 161.894531 186.984375 161.878906 187.519531 161.878906 C 188.050781 161.878906 188.585938 161.894531 189.117188 161.925781 C 189.652344 161.960938 190.183594 162.007812 190.710938 162.070312 C 191.242188 162.136719 191.769531 162.214844 192.296875 162.3125 C 192.820312 162.40625 193.34375 162.519531 193.863281 162.644531 C 194.378906 162.773438 194.894531 162.914062 195.402344 163.074219 C 195.914062 163.230469 196.417969 163.402344 196.917969 163.59375 C 197.417969 163.78125 197.910156 163.984375 198.398438 164.203125 C 198.886719 164.421875 199.367188 164.652344 199.839844 164.898438 C 200.3125 165.144531 200.777344 165.40625 201.238281 165.683594 C 201.695312 165.957031 202.144531 166.246094 202.585938 166.546875 C 203.023438 166.847656 203.457031 167.164062 203.875 167.492188 C 204.296875 167.820312 204.710938 168.160156 205.109375 168.511719 C 205.511719 168.863281 205.902344 169.230469 206.28125 169.605469 C 206.660156 169.980469 207.027344 170.367188 207.382812 170.765625 C 207.738281 171.164062 208.082031 171.570312 208.414062 171.992188 C 208.746094 172.410156 209.0625 172.835938 209.371094 173.277344 C 209.0625 173.714844 208.746094 174.140625 208.414062 174.558594 C 208.082031 174.980469 207.738281 175.386719 207.382812 175.785156 C 207.027344 176.183594 206.660156 176.570312 206.28125 176.945312 C 205.902344 177.324219 205.511719 177.6875 205.109375 178.039062 C 204.710938 178.390625 204.296875 178.730469 203.875 179.058594 C 203.457031 179.386719 203.023438 179.703125 202.585938 180.003906 C 202.144531 180.304688 201.695312 180.59375 201.238281 180.867188 C 200.777344 181.144531 200.3125 181.40625 199.839844 181.652344 C 199.367188 181.898438 198.886719 182.132812 198.398438 182.347656 C 197.910156 182.566406 197.417969 182.769531 196.917969 182.957031 C 196.417969 183.148438 195.914062 183.320312 195.402344 183.476562 C 194.894531 183.636719 194.378906 183.777344 193.863281 183.90625 C 193.34375 184.03125 192.820312 184.144531 192.296875 184.238281 C 191.769531 184.335938 191.242188 184.414062 190.710938 184.480469 C 190.183594 184.542969 189.652344 184.589844 189.117188 184.625 C 188.585938 184.65625 188.050781 184.671875 187.519531 184.671875 C 186.984375 184.671875 186.449219 184.65625 185.917969 184.625 C 185.382812 184.589844 184.851562 184.542969 184.324219 184.480469 C 183.792969 184.414062 183.265625 184.335938 182.738281 184.238281 C 182.214844 184.144531 181.691406 184.03125 181.175781 183.90625 C 180.65625 183.777344 180.140625 183.636719 179.632812 183.476562 C 179.121094 183.320312 178.617188 183.148438 178.117188 182.957031 C 177.617188 182.769531 177.125 182.566406 176.636719 182.347656 C 176.148438 182.132812 175.667969 181.898438 175.195312 181.652344 C 174.722656 181.40625 174.257812 181.144531 173.800781 180.867188 C 173.339844 180.59375 172.890625 180.304688 172.453125 180.003906 C 172.011719 179.703125 171.582031 179.386719 171.160156 179.058594 C 170.738281 178.730469 170.324219 178.390625 169.925781 178.039062 C 169.523438 177.6875 169.132812 177.324219 168.753906 176.945312 C 168.375 176.570312 168.007812 176.183594 167.652344 175.785156 C 167.296875 175.386719 166.953125 174.980469 166.621094 174.558594 C 166.289062 174.140625 165.972656 173.714844 165.667969 173.277344 Z M 181.597656 152.785156 C 181.390625 152.4375 181.21875 152.078125 181.078125 151.699219 C 180.941406 151.324219 180.832031 150.9375 180.761719 150.539062 C 180.6875 150.144531 180.652344 149.746094 180.648438 149.34375 C 180.644531 148.941406 180.679688 148.542969 180.746094 148.144531 C 180.816406 147.75 180.917969 147.363281 181.050781 146.984375 C 181.1875 146.605469 181.355469 146.242188 181.554688 145.890625 C 181.753906 145.542969 181.984375 145.214844 182.242188 144.90625 C 182.5 144.597656 182.78125 144.3125 183.089844 144.050781 C 183.394531 143.792969 183.722656 143.5625 184.070312 143.359375 C 184.417969 143.160156 184.78125 142.988281 185.160156 142.851562 C 185.539062 142.714844 185.925781 142.609375 186.320312 142.539062 C 186.714844 142.46875 187.117188 142.433594 187.519531 142.433594 C 187.921875 142.433594 188.320312 142.46875 188.714844 142.539062 C 189.109375 142.609375 189.5 142.714844 189.875 142.851562 C 190.253906 142.988281 190.617188 143.160156 190.964844 143.359375 C 191.3125 143.5625 191.640625 143.792969 191.945312 144.050781 C 192.253906 144.3125 192.535156 144.597656 192.792969 144.90625 C 193.050781 145.214844 193.28125 145.542969 193.480469 145.890625 C 193.679688 146.242188 193.847656 146.605469 193.984375 146.984375 C 194.121094 147.363281 194.222656 147.75 194.289062 148.144531 C 194.355469 148.542969 194.390625 148.941406 194.386719 149.34375 C 194.386719 149.746094 194.347656 150.144531 194.273438 150.539062 C 194.203125 150.9375 194.097656 151.324219 193.957031 151.699219 C 193.816406 152.078125 193.644531 152.4375 193.441406 152.785156 C 193.289062 153.039062 193.121094 153.285156 192.933594 153.515625 C 192.75 153.75 192.554688 153.972656 192.339844 154.179688 C 192.128906 154.386719 191.902344 154.578125 191.664062 154.757812 C 191.429688 154.9375 191.179688 155.101562 190.921875 155.246094 C 190.664062 155.394531 190.398438 155.523438 190.121094 155.632812 C 189.847656 155.746094 189.566406 155.839844 189.277344 155.917969 C 188.992188 155.992188 188.699219 156.050781 188.40625 156.085938 C 188.109375 156.125 187.816406 156.144531 187.519531 156.144531 C 187.222656 156.144531 186.925781 156.125 186.628906 156.085938 C 186.335938 156.050781 186.042969 155.992188 185.757812 155.917969 C 185.46875 155.839844 185.1875 155.746094 184.914062 155.632812 C 184.640625 155.523438 184.371094 155.394531 184.113281 155.246094 C 183.855469 155.101562 183.605469 154.9375 183.371094 154.757812 C 183.132812 154.578125 182.90625 154.386719 182.695312 154.179688 C 182.484375 153.972656 182.285156 153.75 182.101562 153.515625 C 181.917969 153.285156 181.75 153.039062 181.597656 152.785156 Z M 187.519531 130.960938 C 188.0625 130.957031 188.609375 130.96875 189.152344 131 C 189.695312 131.027344 190.238281 131.074219 190.78125 131.136719 C 191.324219 131.199219 191.863281 131.277344 192.398438 131.375 C 192.9375 131.46875 193.46875 131.582031 194 131.710938 C 194.527344 131.839844 195.054688 131.984375 195.574219 132.144531 C 196.097656 132.304688 196.613281 132.480469 197.121094 132.675781 C 197.632812 132.867188 198.136719 133.074219 198.632812 133.296875 C 199.128906 133.519531 199.621094 133.757812 200.101562 134.011719 C 200.585938 134.265625 201.0625 134.535156 201.527344 134.816406 C 201.992188 135.097656 202.449219 135.394531 202.898438 135.707031 C 203.347656 136.015625 203.785156 136.339844 204.214844 136.675781 C 204.640625 137.015625 205.058594 137.363281 205.464844 137.726562 C 205.871094 138.089844 206.269531 138.464844 206.652344 138.855469 C 207.035156 139.242188 207.40625 139.640625 207.765625 140.050781 C 208.125 140.460938 208.472656 140.878906 208.804688 141.3125 C 209.140625 141.742188 209.457031 142.183594 209.765625 142.636719 C 210.070312 143.085938 210.363281 143.546875 210.640625 144.015625 C 210.921875 144.484375 211.183594 144.960938 211.433594 145.445312 C 211.679688 145.933594 211.914062 146.425781 212.132812 146.921875 C 212.351562 147.421875 212.554688 147.929688 212.742188 148.441406 C 212.929688 148.953125 213.101562 149.46875 213.257812 149.992188 C 213.414062 150.515625 213.554688 151.042969 213.675781 151.574219 C 213.800781 152.105469 213.90625 152.636719 214 153.175781 C 214.089844 153.714844 214.164062 154.253906 214.222656 154.796875 C 214.277344 155.335938 214.320312 155.882812 214.34375 156.425781 C 214.367188 156.96875 214.375 157.515625 214.367188 158.058594 C 214.355469 158.605469 214.332031 159.148438 214.289062 159.695312 C 214.246094 160.238281 214.1875 160.777344 214.109375 161.320312 C 214.035156 161.859375 213.941406 162.394531 213.835938 162.929688 C 213.726562 163.464844 213.601562 163.996094 213.457031 164.519531 C 213.316406 165.046875 213.160156 165.570312 212.988281 166.085938 C 212.8125 166.605469 212.625 167.113281 212.417969 167.621094 C 210.414062 165.242188 208.113281 163.199219 205.519531 161.488281 C 202.925781 159.773438 200.144531 158.460938 197.171875 157.550781 C 197.703125 156.9375 198.171875 156.277344 198.574219 155.574219 C 198.980469 154.871094 199.316406 154.136719 199.582031 153.367188 C 199.847656 152.601562 200.035156 151.816406 200.152344 151.011719 C 200.265625 150.207031 200.304688 149.398438 200.265625 148.589844 C 200.226562 147.777344 200.109375 146.976562 199.917969 146.1875 C 199.726562 145.398438 199.460938 144.636719 199.125 143.898438 C 198.785156 143.160156 198.382812 142.457031 197.910156 141.796875 C 197.4375 141.136719 196.910156 140.523438 196.320312 139.964844 C 195.734375 139.40625 195.097656 138.90625 194.414062 138.464844 C 193.730469 138.027344 193.011719 137.65625 192.257812 137.355469 C 191.503906 137.054688 190.730469 136.824219 189.933594 136.671875 C 189.132812 136.519531 188.328125 136.441406 187.519531 136.441406 C 186.707031 136.441406 185.902344 136.519531 185.105469 136.671875 C 184.304688 136.824219 183.53125 137.054688 182.777344 137.355469 C 182.023438 137.65625 181.304688 138.027344 180.621094 138.464844 C 179.9375 138.90625 179.300781 139.40625 178.714844 139.964844 C 178.125 140.523438 177.597656 141.136719 177.125 141.796875 C 176.652344 142.457031 176.25 143.160156 175.910156 143.898438 C 175.574219 144.636719 175.308594 145.398438 175.117188 146.1875 C 174.925781 146.976562 174.808594 147.777344 174.769531 148.589844 C 174.730469 149.398438 174.769531 150.207031 174.886719 151.011719 C 175 151.816406 175.191406 152.601562 175.453125 153.367188 C 175.71875 154.136719 176.054688 154.871094 176.460938 155.574219 C 176.867188 156.277344 177.335938 156.9375 177.863281 157.550781 C 174.894531 158.460938 172.109375 159.773438 169.515625 161.488281 C 166.921875 163.199219 164.621094 165.242188 162.617188 167.621094 C 162.410156 167.113281 162.222656 166.605469 162.050781 166.085938 C 161.875 165.570312 161.71875 165.046875 161.578125 164.519531 C 161.4375 163.996094 161.308594 163.464844 161.203125 162.929688 C 161.09375 162.394531 161 161.859375 160.925781 161.320312 C 160.847656 160.777344 160.789062 160.238281 160.746094 159.695312 C 160.703125 159.148438 160.679688 158.605469 160.667969 158.058594 C 160.660156 157.515625 160.667969 156.96875 160.691406 156.425781 C 160.714844 155.882812 160.757812 155.335938 160.816406 154.796875 C 160.871094 154.253906 160.945312 153.714844 161.035156 153.175781 C 161.128906 152.636719 161.234375 152.105469 161.359375 151.574219 C 161.480469 151.042969 161.621094 150.515625 161.777344 149.992188 C 161.933594 149.46875 162.105469 148.953125 162.292969 148.441406 C 162.480469 147.929688 162.683594 147.421875 162.902344 146.921875 C 163.121094 146.425781 163.355469 145.933594 163.601562 145.445312 C 163.851562 144.960938 164.117188 144.484375 164.394531 144.015625 C 164.671875 143.546875 164.964844 143.085938 165.269531 142.636719 C 165.578125 142.183594 165.898438 141.742188 166.230469 141.3125 C 166.5625 140.878906 166.910156 140.460938 167.269531 140.050781 C 167.628906 139.640625 168 139.242188 168.382812 138.855469 C 168.769531 138.464844 169.164062 138.089844 169.570312 137.726562 C 169.976562 137.363281 170.394531 137.015625 170.820312 136.675781 C 171.25 136.339844 171.6875 136.015625 172.136719 135.707031 C 172.585938 135.394531 173.042969 135.097656 173.507812 134.816406 C 173.976562 134.535156 174.449219 134.265625 174.933594 134.011719 C 175.414062 133.757812 175.90625 133.519531 176.402344 133.296875 C 176.898438 133.074219 177.402344 132.867188 177.914062 132.675781 C 178.425781 132.480469 178.941406 132.304688 179.460938 132.144531 C 179.980469 131.984375 180.507812 131.839844 181.035156 131.710938 C 181.566406 131.582031 182.101562 131.46875 182.636719 131.375 C 183.171875 131.277344 183.710938 131.199219 184.253906 131.136719 C 184.796875 131.074219 185.339844 131.027344 185.882812 131 C 186.429688 130.96875 186.972656 130.957031 187.519531 130.960938 Z M 187.519531 130.960938 " fill-opacity="1" fill-rule="nonzero"/></svg>